<?xml version="1.0" encoding="UTF-8"?>
<!DOCTYPE svg PUBLIC "-//W3C//DTD SVG 1.1//EN" "http://www.w3.org/Graphics/SVG/1.1/DTD/svg11.dtd">
<!-- Creator: CorelDRAW X7 -->
<svg xmlns="http://www.w3.org/2000/svg" xml:space="preserve" width="100%" height="100%" version="1.1" style="shape-rendering:geometricPrecision; text-rendering:geometricPrecision; image-rendering:optimizeQuality; fill-rule:evenodd; clip-rule:evenodd"
viewBox="-250 -250 9543 9544"
 xmlns:xlink="http://www.w3.org/1999/xlink">
 <defs>
  <style type="text/css">
   <![CDATA[
    .fil0 {fill:#B3B3B3}
    .fil2 {fill:#FFCC00}
    .fil1 {fill:#FFFFFF}
   ]]>
  </style>
 </defs>
 <g id="Capa_x0020_1">
  <metadata id="CorelCorpID_0Corel-Layer"/>
  <path class="fil0" d="M0 4324c0,1351 523,2237 1450,3169 475,477 404,602 1043,1020 928,608 1441,528 2519,528 1492,0 2007,-646 2653,-1475 1494,-1918 1376,-1561 1376,-4225 0,-1178 -412,-2197 -1247,-2586 -721,-335 -2624,-755 -3667,-755 -1741,0 -1682,1556 -2181,2044 -452,442 -1946,1288 -1946,2280z"/>
  <path class="fil1" d="M393 4619c0,-1158 1269,-1646 1875,-2253 648,-650 370,-1973 2154,-1973 423,0 3004,672 3296,832 934,513 1508,3896 119,5433 -212,234 -286,357 -492,589 -706,793 -951,1401 -2726,1401 -1375,0 -2143,-582 -2766,-1361 -465,-581 -1460,-1721 -1460,-2668z"/>
  <path class="fil2" d="M3341 4226c0,2503 3538,2503 3538,0 0,-2220 -3538,-2220 -3538,0z"/>
 </g>
</svg>
